HIERARCHY
ROOT Hips
{
	OFFSET -0.001795 -0.223333 0.028219
	CHANNELS 6 Xposition Yposition Zposition Zrotation Yrotation Xrotation 
	JOINT LeftUpLeg
	{
		OFFSET 0.069520 -0.091406 -0.006815
		CHANNELS 3 Zrotation Yrotation Xrotation
		JOINT LeftLeg
		{
			OFFSET 0.034277 -0.375199 -0.004496
			CHANNELS 3 Zrotation Yrotation Xrotation
			JOINT LeftFoot
			{
				OFFSET -0.013596 -0.397961 -0.043693
				CHANNELS 3 Zrotation Yrotation Xrotation
				JOINT LeftToe
				{
					OFFSET 0.026358 -0.055791 0.119288
					CHANNELS 3 Zrotation Yrotation Xrotation
					End Site
					{
						OFFSET 0.000000 0.000000 0.000000
					}
				}
			}
		}
	}
	JOINT RightUpLeg
	{
		OFFSET -0.067670 -0.090522 -0.004320
		CHANNELS 3 Zrotation Yrotation Xrotation
		JOINT RightLeg
		{
			OFFSET -0.038290 -0.382569 -0.008850
			CHANNELS 3 Zrotation Yrotation Xrotation
			JOINT RightFoot
			{
				OFFSET 0.015774 -0.398415 -0.042312
				CHANNELS 3 Zrotation Yrotation Xrotation
				JOINT RightToe
				{
					OFFSET -0.025372 -0.048144 0.123348
					CHANNELS 3 Zrotation Yrotation Xrotation
					End Site
					{
						OFFSET 0.000000 0.000000 0.000000
					}
				}
			}
		}
	}
	JOINT Spine
	{
		OFFSET -0.002533 0.108963 -0.026696
		CHANNELS 3 Zrotation Yrotation Xrotation
		JOINT Spine1
		{
			OFFSET 0.005487 0.135180 0.001092
			CHANNELS 3 Zrotation Yrotation Xrotation
			JOINT Spine2
			{
				OFFSET 0.001457 0.052922 0.025425
				CHANNELS 3 Zrotation Yrotation Xrotation
				JOINT Neck
				{
					OFFSET -0.002778 0.213870 -0.042857
					CHANNELS 3 Zrotation Yrotation Xrotation
					JOINT Head
					{
						OFFSET 0.005152 0.064970 0.051349
						CHANNELS 3 Zrotation Yrotation Xrotation
						End Site
						{
							OFFSET 0.000000 0.000000 0.000000
						}
					}
				}
				JOINT LeftShoulder
				{
					OFFSET 0.078845 0.121749 -0.034090
					CHANNELS 3 Zrotation Yrotation Xrotation
					JOINT LeftArm
					{
						OFFSET 0.090977 0.030469 -0.008868
						CHANNELS 3 Zrotation Yrotation Xrotation
						JOINT LeftForeArm
						{
							OFFSET 0.259612 -0.012772 -0.027456
							CHANNELS 3 Zrotation Yrotation Xrotation
							JOINT LeftHand
							{
								OFFSET 0.249234 0.008986 -0.001171
								CHANNELS 3 Zrotation Yrotation Xrotation
								End Site
								{
									OFFSET 0.000000 0.000000 0.000000
								}
							}
						}
					}
				}
				JOINT RightShoulder
				{
					OFFSET -0.081759 0.118833 -0.038615
					CHANNELS 3 Zrotation Yrotation Xrotation
					JOINT RightArm
					{
						OFFSET -0.096012 0.032551 -0.009143
						CHANNELS 3 Zrotation Yrotation Xrotation
						JOINT RightForeArm
						{
							OFFSET -0.253742 -0.013329 -0.021401
							CHANNELS 3 Zrotation Yrotation Xrotation
							JOINT RightHand
							{
								OFFSET -0.255298 0.007772 -0.005559
								CHANNELS 3 Zrotation Yrotation Xrotation
								End Site
								{
									OFFSET 0.000000 0.000000 0.000000
								}
							}
						}
					}
				}
			}
		}
	}
}
MOTION
Frames: 6
Frame Time: 0.050000
0.000000 0.945784 0.000000 0.472897 17.297795 -1.730164 0.693963 0.381503 7.482078 -1.391096 0.072799 1.050801 -1.276303 -2.545977 0.103103 0.000000 0.000000 0.000000 -0.570592 1.392253 -22.063565 4.518677 -2.097884 25.715818 -4.989929 -12.340369 0.949709 0.000000 0.000000 0.000000 0.040902 -0.565404 10.223599 3.715688 -1.643276 -1.422514 -5.441604 1.332487 9.429142 7.475263 -2.367627 -16.057389 0.000000 0.000000 0.000000 -22.837540 -1.328167 -4.824037 -41.564140 -2.731554 -3.330182 -6.309978 -30.798550 2.100633 0.000000 0.000000 0.000000 19.017057 -6.749495 -2.722000 52.885511 -4.581219 -7.778786 10.740266 36.450964 6.007310 0.000000 0.000000 0.000000 
0.004013 0.939902 0.029476 0.130166 16.491514 -0.978151 0.992707 0.450923 9.900309 -2.115586 0.170292 -0.909587 0.961051 0.615245 -1.982757 0.000000 0.000000 0.000000 -0.541100 1.502233 -24.923336 5.430934 -1.563374 16.817650 -6.853444 -16.132848 6.679218 0.000000 0.000000 0.000000 0.753350 -0.578535 9.619793 3.301128 -1.263088 -3.063375 -5.994430 1.186906 10.664537 8.029122 -2.420129 -17.812382 0.000000 0.000000 0.000000 -19.167193 -0.336128 -4.346932 -45.705891 -4.966932 -3.296603 -4.543412 -32.255253 1.642861 0.000000 0.000000 0.000000 18.736073 -7.508280 -3.158194 53.704194 -7.572597 -9.153316 12.452142 39.103066 7.215126 0.000000 0.000000 0.000000 
0.007214 0.932307 0.062185 0.154578 14.805413 0.376268 0.764080 0.573295 11.278809 -1.605391 0.149645 -1.226955 2.071510 1.826276 -3.865482 0.000000 0.000000 0.000000 -0.292395 1.690713 -25.711286 4.426047 -0.727416 6.474929 -7.497423 -17.275850 9.852836 0.000000 0.000000 0.000000 1.068571 -0.532429 8.731219 2.640620 -0.890220 -3.959559 -5.477889 2.324576 11.400814 7.648059 -2.196103 -17.658733 0.000000 0.000000 0.000000 -19.908321 -1.725081 -3.839403 -45.277645 -5.206610 -3.174402 -5.483480 -32.124973 1.934290 0.000000 0.000000 0.000000 17.981070 -8.274019 -3.534781 54.956476 -8.920147 -9.849317 12.307545 39.570353 7.315571 0.000000 0.000000 0.000000 
0.009436 0.923973 0.098475 0.574241 14.383042 1.371117 0.728035 0.636352 12.546766 -1.137187 0.109277 -0.805243 2.774635 1.913207 -6.211284 0.000000 0.000000 0.000000 -0.546708 1.678846 -26.605169 3.727105 -0.515510 1.459236 -8.739440 -19.366327 12.279901 0.000000 0.000000 0.000000 1.551405 -0.472720 7.351161 3.127384 -1.242298 -2.623604 -6.901508 2.618936 9.990017 8.718654 -3.187595 -15.783258 0.000000 0.000000 0.000000 -20.258184 -1.462149 -4.180699 -45.252177 -4.660108 -3.199164 -5.926231 -32.868914 2.049649 0.000000 0.000000 0.000000 18.260282 -8.773706 -3.824567 54.319178 -10.142723 -10.080452 11.479826 40.609213 7.219187 0.000000 0.000000 0.000000 
0.010249 0.916323 0.140165 0.826030 13.962504 2.128664 0.680052 0.698921 13.710342 -1.228647 0.080515 0.643594 3.527219 3.459405 -6.527830 0.000000 0.000000 0.000000 0.004483 1.845429 -26.983612 3.216027 -0.433579 2.349680 -9.342487 -20.213357 14.579775 0.000000 0.000000 0.000000 2.258022 -0.440315 6.150480 3.216732 -1.325399 -2.220592 -8.098208 2.304524 9.357249 9.670904 -4.030273 -14.896638 0.000000 0.000000 0.000000 -20.717969 -1.902087 -3.975969 -44.534478 -3.684784 -3.417779 -6.350481 -33.998962 2.276147 0.000000 0.000000 0.000000 19.615270 -8.960482 -4.107818 53.395021 -11.719636 -10.548762 12.177952 42.408334 7.762383 0.000000 0.000000 0.000000 
0.009720 0.913407 0.187867 0.138662 12.147186 2.392115 1.025521 0.740274 14.693958 -0.925978 -0.044633 3.728903 3.987538 5.369055 -5.293511 0.000000 0.000000 0.000000 1.497472 2.319401 -27.122379 4.698047 -0.706260 5.575389 -11.074249 -23.013196 17.340834 0.000000 0.000000 0.000000 3.361072 -0.403541 4.674654 3.557591 -1.562311 -1.531378 -8.153629 1.971010 8.559512 9.955404 -4.255561 -15.155048 0.000000 0.000000 0.000000 -22.050940 -1.086905 -4.378245 -44.196571 -1.843569 -3.998147 -6.425314 -33.947001 2.418558 0.000000 0.000000 0.000000 19.754010 -10.058935 -5.059675 52.384265 -12.627204 -10.637577 14.283694 42.236116 8.368551 0.000000 0.000000 0.000000 
